<?xml version="1.0" standalone="no"?>
<!DOCTYPE svg PUBLIC "-//W3C//DTD SVG 20010904//EN"
 "http://www.w3.org/TR/2001/REC-SVG-20010904/DTD/svg10.dtd">
<svg version="1.0" xmlns="http://www.w3.org/2000/svg"
 width="1600.000000pt" height="1600.000000pt" viewBox="0 0 1600.000000 1600.000000"
 preserveAspectRatio="xMidYMid meet">

<g transform="translate(0.000000,1600.000000) scale(0.100000,-0.100000)"
fill="#000000" stroke="none">
<path d="M2745 15993 c-596 -48 -1144 -259 -1615 -623 -114 -88 -391 -362
-484 -480 -162 -204 -342 -513 -434 -745 -84 -212 -143 -430 -184 -680 l-23
-140 -3 -5105 c-2 -3709 0 -5145 8 -5250 56 -724 372 -1395 894 -1898 510
-490 1147 -772 1864 -822 223 -16 10248 -8 10362 8 520 74 911 217 1305 478
455 301 840 753 1058 1239 127 285 199 544 249 895 16 114 24 10139 8 10362
-43 621 -259 1181 -638 1655 -507 636 -1254 1034 -2067 1103 -109 9 -10188 12
-10300 3z m1150 -2633 c404 -69 730 -302 902 -645 52 -103 99 -250 119 -373
24 -145 15 -363 -21 -502 -57 -217 -157 -394 -309 -546 -174 -174 -390 -288
-647 -345 -265 -58 -569 -46 -819 31 -453 139 -764 491 -845 954 -19 113 -19
314 0 436 60 366 289 681 623 853 286 148 642 197 997 137z m7155 -3285 c329
-46 588 -124 853 -256 373 -187 672 -453 908 -807 275 -414 447 -927 514
-1532 33 -298 36 -566 33 -2720 l-3 -2135 -1232 -3 -1233 -2 0 2077 c0 2004
-3 2225 -30 2423 -100 711 -410 1061 -977 1099 -394 26 -702 -84 -959 -343
-192 -194 -338 -462 -391 -718 -15 -76 -17 -261 -22 -2308 l-6 -2225 -1236 -3
-1237 -2 -6 1282 c-3 706 -7 2355 -9 3666 l-4 2382 1237 0 1237 0 7 -37 c3
-21 6 -189 7 -373 1 -184 4 -398 8 -474 l6 -139 66 99 c151 225 345 444 523
588 331 268 724 422 1211 476 126 14 601 4 735 -15z m-6187 -2847 c4 -1498 7
-3147 7 -3665 l0 -943 -1220 0 c-968 0 -1221 3 -1224 13 -3 6 -7 1656 -10
3665 l-6 3652 1223 0 1224 0 6 -2722z"/>
</g>
</svg>
